# xmcd
#
# Track frame offsets:
#	150
#	10656
#	20453
#	31298
#	38615
#	51100
#	61478
#	71003
#	78955
#	91158
#	102633
#	113571
#	123430
#	133291
#	146381
#	156341
#
# Disc length: 2199 seconds
#
# Revision: 1
# Processed by: cddbd v1.5.1PL0 Copyright (c) Steve Scherf et al.
# Submitted via: audiograbber 1.82.01
#
DISCID=d0089510
DTITLE=Various Artist - Hillbilly Hit Parade
DYEAR=1957
DGENRE=Country
TTITLE0=Jones George - Why Baby Why Lp
TTITLE1=Payne Leon - You Are The One
TTITLE2=Hicks Jeanette - Searching
TTITLE3=Jones George - Any Old Time
TTITLE4=Jones George and Jeanette Hicks - I Take The Chance
TTITLE5=Barnes Benny - Consience I'm Guilty
TTITLE6=Jones George - Hold Everything
TTITLE7=Blank Eddie - I Want You I Need You
TTITLE8=Payne Leon - Crazy Arms
TTITLE9=Jones George - You Gotta Be My Baby Lp
TTITLE10=Barnes Benny - I Walk The Line
TTITLE11=Jones George - Sweet Dreams
TTITLE12=Payne Leon - Blackboard Of My Heart
TTITLE13=Hayes Red - A Satisfied Mind
TTITLE14=Jones George - Yes I Know Why
TTITLE15=Jones Thumper - Heartbreak Hotel
EXTD=
EXTT0=
EXTT1=
EXTT2=
EXTT3=
EXTT4=
EXTT5=
EXTT6=
EXTT7=
EXTT8=
EXTT9=
EXTT10=corrected name
EXTT11=
EXTT12=
EXTT13=
EXTT14=
EXTT15=
PLAYORDER=
